<svg xmlns="http://www.w3.org/2000/svg" width="48" height="48" viewBox="0 0 48 48"><path fill="currentColor" fill-rule="evenodd" d="M8.095 1.546C11.381 1.279 16.586 1 24 1s12.619.279 15.905.546c3.532.287 6.263 3.017 6.55 6.55C46.722 11.38 47 16.585 47 24s-.278 12.619-.545 15.905c-.287 3.532-3.018 6.263-6.55 6.55C36.619 46.722 31.414 47 24 47s-12.619-.278-15.905-.545c-3.532-.287-6.263-3.018-6.55-6.55C1.28 36.619 1 31.414 1 24s.279-12.619.546-15.905c.287-3.532 3.017-6.263 6.55-6.55M5.175 14.5A239 239 0 0 0 5 24c0 7.314.275 12.41.532 15.58c.129 1.58 1.309 2.76 2.887 2.888C11.59 42.725 16.686 43 24 43s12.41-.275 15.58-.532c1.58-.129 2.76-1.309 2.888-2.887C42.725 36.41 43 31.314 43 24c0-3.73-.071-6.884-.176-9.5zm2.075-6c0-.966.784-1.75 1.75-1.75h2a1.75 1.75 0 1 1 0 3.5H9A1.75 1.75 0 0 1 7.25 8.5M17 6.75a1.75 1.75 0 1 0 0 3.5h2a1.75 1.75 0 1 0 0-3.5z" clip-rule="evenodd"/></svg>