<svg xmlns="http://www.w3.org/2000/svg" xmlns:xlink="http://www.w3.org/1999/xlink" fill="none" version="1.1" width="20" height="20" viewBox="0 0 20 20"><g><path d="M0,10C0,5.2859998,0,2.9289999,1.464,1.4639997C2.9299998,0,5.2859998,0,10,0C14.714001,0,17.070999,0,18.535,1.464C20,2.9299998,20,5.2859998,20,10C20,14.714001,20,17.070999,18.535,18.535C17.072001,20,14.714001,20,10,20C5.2859993,20,2.9289999,20,1.4639997,18.535C0,17.072001,0,14.714001,0,10ZM10,4.25C10.414213,4.2500005,10.75,4.5857868,10.75,5L10.75,10.190001L12.47,8.4700003C12.759453,8.1593752,13.248809,8.1507444,13.549034,8.4509697C13.849259,8.751195,13.840627,9.24055,13.530001,9.5300007L10.530001,12.530001C10.237185,12.822454,9.7628193,12.822454,9.4700012,12.530001L6.4700012,9.5300007C6.1593657,9.2405519,6.1507292,8.7511883,6.4509592,8.4509583C6.7511883,8.1507292,7.2405529,8.1593647,7.5300007,8.4700012L9.250001,10.190001L9.250001,5C9.2500019,4.5857863,9.5857878,4.2500005,10,4.25ZM6.000001,14.25C5.5857873,14.25,5.250001,14.585787,5.250001,15C5.250001,15.414213,5.5857873,15.75,6.000001,15.75L14,15.75C14.414213,15.75,14.75,15.414213,14.75,15C14.75,14.585787,14.414213,14.25,14,14.25L6.000001,14.25Z" fill-rule="evenodd" fill="currentColor" fill-opacity="1" style="mix-blend-mode:passthrough"/></g></svg>
