<svg xmlns="http://www.w3.org/2000/svg" xmlns:xlink="http://www.w3.org/1999/xlink" fill="none" version="1.1" width="21.5" height="21.5" viewBox="0 0 21.5 21.5"><g><g><path d="M10.750000476837158,5C11.164213676837157,5.00000047683716,11.500000476837158,5.33578682,11.500000476837158,5.75L11.500000476837158,10.9400005L13.220000776837157,9.220000299999999C13.509453276837158,8.9093752,13.998809376837158,8.9007444,14.299034576837158,9.2009697C14.599259876837158,9.501195,14.590627176837158,9.990549999999999,14.280001176837159,10.2800007L11.280001176837159,13.2800007C10.987184976837158,13.5724545,10.512819776837159,13.5724545,10.220001676837157,13.2800007L7.220001676837159,10.2800007C6.909366126837158,9.9905519,6.900729656837158,9.501188299999999,7.200959676837158,9.2009583C7.501188776837158,8.9007292,7.990553376837158,8.9093647,8.280001176837159,9.220001199999999L10.00000147683716,10.940001500000001L10.00000147683716,5.75C10.000002376837159,5.33578634,10.335788276837159,5.00000047683716,10.750000476837158,5ZM6.000000476837158,15.75C6.000000476837158,15.335787,6.3357868168371585,15,6.750000476837158,15L14.750000476837158,15C15.164213676837159,15,15.500000476837158,15.335787,15.500000476837158,15.75C15.500000476837158,16.164213,15.164213676837159,16.5,14.750000476837158,16.5L6.750000476837158,16.5C6.3357868168371585,16.5,6.000000476837158,16.164213,6.000000476837158,15.75Z" fill="currentColor" fill-opacity="1" style="mix-blend-mode:passthrough"/></g><g><path d="M10.693001,0C8.3840008,0,6.5750003,0,5.1630001,0.19000006C3.7190003,0.38400006,2.579,0.78999996,1.684,1.684C0.78900003,2.579,0.38400006,3.7189999,0.19000006,5.164C0,6.5749998,0,8.3839998,0,10.693L0,10.807C0,13.116,0,14.924999,0.19000006,16.337C0.38400006,17.781,0.78999996,18.921,1.684,19.816C2.579,20.711,3.7190003,21.115999,5.164,21.309999C6.5750003,21.5,8.3840008,21.5,10.692999,21.5L10.806999,21.5C13.115999,21.5,14.924999,21.5,16.337,21.309999C17.781,21.115999,18.921,20.709999,19.816,19.816C20.711,18.921,21.115999,17.781,21.309999,16.336C21.5,14.925001,21.5,13.116,21.5,10.807001L21.5,10.693001C21.5,8.3840008,21.5,6.5750008,21.309999,5.1630006C21.115999,3.7190008,20.709999,2.5790005,19.816,1.6840005C18.921,0.78900051,17.781,0.38400054,16.336,0.19000053C14.925001,4.7683716e-7,13.116001,4.7683716e-7,10.807001,4.7683716e-7L10.693001,0ZM2.7450004,2.7449999C3.3150005,2.175,4.0850005,1.8479998,5.3640003,1.6759999C6.664,1.5019999,8.3719997,1.5,10.75,1.5C13.128,1.5,14.836,1.5020001,16.136,1.6760001C17.414999,1.848,18.185999,2.1760001,18.756001,2.7450001C19.325001,3.3150001,19.652,4.085,19.824001,5.3640003C19.998001,6.6640005,20.000002,8.3719997,20.000002,10.75C20.000002,13.128,19.998001,14.836,19.824001,16.136C19.652,17.414999,19.324001,18.185999,18.755001,18.756001C18.185001,19.325001,17.415001,19.652,16.136002,19.824001C14.836002,19.998001,13.128002,20.000002,10.750002,20.000002C8.3720016,20.000002,6.6640024,19.998001,5.3640022,19.824001C4.0850024,19.652,3.3140025,19.324001,2.7440023,18.755001C2.1750023,18.185001,1.8480024,17.415001,1.6760025,16.136002C1.5020025,14.836002,1.5000024,13.128002,1.5000024,10.750002C1.5000024,8.3720016,1.5020025,6.6640019,1.6760025,5.3640018C1.8480024,4.0850019,2.1760025,3.314002,2.7450004,2.7449999Z" fill-rule="evenodd" fill="currentColor" fill-opacity="1" style="mix-blend-mode:passthrough"/></g></g></svg>
